<?xml version="1.0" standalone="no"?>
<!DOCTYPE svg PUBLIC "-//W3C//DTD SVG 20010904//EN"
 "http://www.w3.org/TR/2001/REC-SVG-20010904/DTD/svg10.dtd">
<svg version="1.0" xmlns="http://www.w3.org/2000/svg"
 width="260.000000pt" height="260.000000pt" viewBox="0 0 260.000000 260.000000"
 preserveAspectRatio="xMidYMid meet">
<metadata>
Created by potrace 1.14, written by Peter Selinger 2001-2017
</metadata>
<g transform="translate(0.000000,260.000000) scale(0.100000,-0.100000)"
fill="#000000" stroke="none">
<path d="M1354 2461 c-2 -2 -4 -253 -4 -556 l0 -552 553 1 552 1 0 555 0 555
-79 0 -79 1 -108 -116 c-170 -180 -259 -304 -259 -358 0 -23 77 -246 107 -310
12 -25 32 -40 98 -71 89 -42 120 -72 104 -102 -13 -25 -59 -47 -89 -43 -48 7
-83 5 -93 -5 -6 -6 -32 -11 -58 -11 -62 0 -93 31 -150 145 -24 49 -57 98 -77
116 -42 37 -127 79 -160 79 -35 0 -78 49 -87 98 -11 66 2 98 69 170 82 88 118
142 176 265 76 160 98 142 -176 142 -130 0 -238 -2 -240 -4z"/>
<path d="M398 2435 c29 -13 130 -49 225 -80 258 -84 242 -75 342 -211 6 -9 -4
-39 -35 -100 -38 -76 -49 -89 -85 -105 -78 -34 -146 1 -190 99 -53 118 -70
136 -185 186 -41 18 -123 56 -182 84 -58 27 -116 53 -127 57 l-21 6 0 -508 0
-509 106 1 c84 0 109 3 115 15 5 8 20 59 34 113 29 114 80 229 120 272 l29 30
8 -30 c21 -78 14 -106 -60 -247 -40 -75 -72 -140 -72 -145 0 -9 126 -11 134
-2 2 2 7 31 11 64 3 32 8 63 11 67 2 4 6 59 8 123 3 108 2 119 -22 163 -23 44
-24 50 -11 77 11 24 23 31 59 38 98 18 251 -17 297 -68 25 -28 22 -52 -15
-105 -30 -45 -124 -238 -150 -310 l-20 -55 259 0 259 0 1 35 c0 19 1 268 2
552 l2 518 -450 -1 -450 0 53 -24z m650 -358 c31 -32 35 -89 11 -152 -44 -118
-85 -173 -110 -148 -19 19 -23 115 -6 149 12 25 30 89 42 150 2 11 4 20 4 22
4 11 42 -2 59 -21z"/>
<path d="M1665 2050 c-36 -37 -38 -41 -25 -65 19 -36 42 -34 27 4 -9 24 -7 33
18 65 36 47 29 46 -20 -4z"/>
<path d="M140 693 l0 -553 23 -1 c159 -4 541 1 548 8 4 4 12 36 18 71 9 58 37
122 52 122 4 0 20 21 37 48 16 26 53 70 83 99 39 39 51 55 42 64 -8 8 -24 1
-61 -25 -27 -20 -53 -36 -56 -36 -4 0 14 27 40 60 28 36 44 65 41 75 -8 20
-23 19 -39 -3 -29 -41 -69 -84 -74 -80 -2 3 9 37 26 76 16 39 30 74 30 77 0 4
-10 5 -22 3 -16 -2 -33 -21 -56 -63 l-32 -60 6 73 c5 68 4 74 -13 70 -17 -3
-54 -92 -67 -162 -8 -42 -11 -41 -34 14 -12 30 -27 50 -36 50 -19 0 -20 -24
-3 -105 7 -34 12 -85 10 -115 -3 -64 -23 -141 -38 -142 -21 -2 -88 143 -100
214 -10 58 -36 140 -53 167 -9 14 -41 60 -71 101 -90 127 -110 179 -73 199 28
15 45 -1 131 -123 44 -63 86 -118 92 -121 6 -4 18 0 27 9 16 16 15 21 -16 77
-18 33 -55 119 -82 191 -43 117 -51 156 -31 159 3 0 14 2 23 4 17 3 68 -46 68
-65 0 -5 25 -62 55 -125 30 -64 55 -120 55 -125 0 -4 7 -14 16 -21 14 -11 18
-10 31 6 7 11 12 29 9 40 -4 11 -17 87 -31 169 -14 82 -28 154 -31 158 -4 5
-6 24 -6 42 l0 33 -219 0 -219 0 0 -554z"/>
<path d="M660 1240 c0 -6 7 -26 14 -45 18 -43 49 -155 71 -257 17 -77 35 -99
50 -60 4 9 9 67 11 127 2 61 6 140 9 178 l4 67 -80 0 c-48 0 -79 -4 -79 -10z"/>
<path d="M896 1243 c-2 -3 0 -19 5 -36 6 -18 12 -117 14 -222 5 -204 14 -308
30 -323 7 -8 8 -6 58 93 55 109 82 138 128 133 40 -4 47 -22 26 -70 -8 -18
-31 -70 -50 -114 -87 -197 -136 -365 -142 -486 l-4 -78 140 0 c137 0 139 0
140 23 0 32 1 994 0 1043 l-1 41 -170 0 c-93 0 -172 -2 -174 -4z"/>
<path d="M1352 692 l3 -557 540 0 c297 -1 546 1 553 3 9 3 12 124 12 557 l0
554 -555 0 -555 0 2 -557z"/>
</g>
</svg>
